<svg width="800" height="500" viewBox="0 0 800 500" fill="none" xmlns="http://www.w3.org/2000/svg">
  <rect width="800" height="500" rx="24" fill="#05080a"/>
  <rect x="0.5" y="0.5" width="799" height="499" rx="23.5" stroke="#ffffff" stroke-opacity="0.05"/>

  <g id="Data_Source">
    <rect x="40" y="120" width="180" height="260" rx="16" fill="#ffffff" fill-opacity="0.02" stroke="#ffffff" stroke-opacity="0.1"/>
    <text x="130" y="110" text-anchor="middle" fill="#6366f1" font-family="monospace" font-size="10" font-weight="900">INPUT_VECTORS (T-n)</text>
    
    <rect x="60" y="140" width="140" height="60" rx="8" fill="#0f172a" stroke="#6366f1" stroke-opacity="0.3"/>
    <text x="130" y="165" text-anchor="middle" fill="#ffffff" font-family="sans-serif" font-size="10" font-weight="700">Pollutants</text>
    <text x="130" y="185" text-anchor="middle" fill="#94a3b8" font-family="monospace" font-size="8">PM10, NO2, SO2, O3</text>
    
    <rect x="60" y="220" width="140" height="60" rx="8" fill="#0f172a" stroke="#1e293b"/>
    <text x="130" y="245" text-anchor="middle" fill="#ffffff" font-family="sans-serif" font-size="10">Meteorology</text>
    <text x="130" y="265" text-anchor="middle" fill="#94a3b8" font-family="monospace" font-size="8">Temp, Humid, Wind</text>

    <rect x="60" y="300" width="140" height="60" rx="8" fill="#0f172a" stroke="#1e293b"/>
    <text x="130" y="325" text-anchor="middle" fill="#ffffff" font-family="sans-serif" font-size="10">Temporal</text>
    <text x="130" y="345" text-anchor="middle" fill="#94a3b8" font-family="monospace" font-size="8">Day, Month, Season</text>
  </g>

  <path d="M220 250 H280" stroke="#6366f1" stroke-width="2" stroke-dasharray="4 4"/>

  <g id="Feature_Eng">
    <rect x="280" y="180" width="120" height="140" rx="12" fill="#6366f1" fill-opacity="0.05" stroke="#6366f1"/>
    <text x="340" y="170" text-anchor="middle" fill="#6366f1" font-family="monospace" font-size="9" font-weight="900">FEATURE_ENG</text>
    <text x="340" y="220" text-anchor="middle" fill="#ffffff" font-family="sans-serif" font-size="9">54 Features</text>
    <path d="M300 240 H380" stroke="#6366f1" stroke-opacity="0.3"/>
    <text x="340" y="260" text-anchor="middle" fill="#94a3b8" font-family="monospace" font-size="8">LAG_FEATURES</text>
    <text x="340" y="280" text-anchor="middle" fill="#94a3b8" font-family="monospace" font-size="8">ROLLING_WINDOW</text>
  </g>

  <g id="NeuralForecast">
    <path d="M400 250 H460" stroke="#6366f1" stroke-width="2"/>
    <rect x="460" y="150" width="180" height="200" rx="16" fill="#ffffff" fill-opacity="0.02" stroke="#ffffff" stroke-opacity="0.2"/>
    <text x="550" y="140" text-anchor="middle" fill="#ffffff" font-family="monospace" font-size="10" font-weight="900">NEURALFORECAST_CORE</text>
    
    <rect x="480" y="180" width="140" height="40" rx="6" fill="#05080a" stroke="#6366f1"/>
    <text x="550" y="205" text-anchor="middle" fill="#ffffff" font-family="sans-serif" font-size="10">Temporal Fusion</text>
    
    <rect x="480" y="235" width="140" height="40" rx="6" fill="#05080a" stroke="#6366f1"/>
    <text x="550" y="260" text-anchor="middle" fill="#ffffff" font-family="sans-serif" font-size="10">DeepAR / N-BEATS</text>
    
    <rect x="480" y="290" width="140" height="40" rx="6" fill="#05080a" stroke="#6366f1"/>
    <text x="550" y="315" text-anchor="middle" fill="#ffffff" font-family="sans-serif" font-size="10">Global Model Logic</text>
  </g>

  <g id="Output">
    <path d="M640 250 H700" stroke="#10b981" stroke-width="2"/>
    <rect x="700" y="180" width="80" height="140" rx="12" fill="#10b981" fill-opacity="0.1" stroke="#10b981"/>
    <text x="740" y="170" text-anchor="middle" fill="#10b981" font-family="monospace" font-size="9" font-weight="900">HORIZON (T+7)</text>
    <path d="M710 220 Q740 190 770 220" stroke="#10b981" fill="none"/>
    <path d="M710 250 Q740 280 770 250" stroke="#10b981" fill="none"/>
    <path d="M710 280 Q740 250 770 280" stroke="#10b981" fill="none"/>
    <text x="740" y="305" text-anchor="middle" fill="#ffffff" font-family="monospace" font-size="8">7_DAY_FCAST</text>
  </g>

  <rect x="250" y="440" width="300" height="30" rx="15" fill="#ffffff" fill-opacity="0.03" stroke="#ffffff" stroke-opacity="0.1"/>
  <text x="400" y="458" text-anchor="middle" fill="#94a3b8" font-family="monospace" font-size="9" font-weight="700">MAE IMPROVEMENT: 18% // ROLLING_ORIGIN_EVAL</text>
</svg>