<svg width="800" height="500" viewBox="0 0 800 500" fill="none" xmlns="http://www.w3.org/2000/svg">
  <rect width="800" height="500" rx="24" fill="#05080a"/>
  <rect x="0.5" y="0.5" width="799" height="499" rx="23.5" stroke="#ffffff" stroke-opacity="0.05"/>

  <g id="Client_Layer">
    <rect x="50" y="180" width="160" height="140" rx="12" fill="#ffffff" fill-opacity="0.02" stroke="#6366f1" stroke-dasharray="4 4"/>
    <text x="130" y="165" text-anchor="middle" fill="#6366f1" font-family="monospace" font-size="10" font-weight="900" style="letter-spacing: 0.2em;">USER_INTERFACE</text>
    <rect x="70" y="200" width="120" height="40" rx="6" fill="#0f172a" stroke="#1e293b"/>
    <text x="130" y="225" text-anchor="middle" fill="#94a3b8" font-family="sans-serif" font-size="10" font-weight="700">Next.js Client</text>
    <rect x="70" y="260" width="120" height="40" rx="6" fill="#0f172a" stroke="#1e293b"/>
    <text x="130" y="285" text-anchor="middle" fill="#94a3b8" font-family="sans-serif" font-size="10" font-weight="700">Seller Dashboard</text>
  </g>

  <g id="Nginx_Gateway">
    <path d="M210 250 H270" stroke="#6366f1" stroke-width="1.5" stroke-dasharray="2 2"/>
    <rect x="270" y="215" width="80" height="70" rx="8" fill="#6366f1" fill-opacity="0.1" stroke="#6366f1"/>
    <text x="310" y="245" text-anchor="middle" fill="#6366f1" font-family="monospace" font-size="10" font-weight="900">NGINX</text>
    <text x="310" y="260" text-anchor="middle" fill="#6366f1" fill-opacity="0.5" font-family="monospace" font-size="8">PROXY</text>
  </g>

  <g id="Backend_Core">
    <path d="M350 250 H410" stroke="#6366f1" stroke-width="1.5"/>
    <rect x="410" y="120" width="200" height="260" rx="16" fill="#ffffff" fill-opacity="0.02" stroke="#ffffff" stroke-opacity="0.1"/>
    <text x="510" y="105" text-anchor="middle" fill="#ffffff" fill-opacity="0.4" font-family="monospace" font-size="10" font-weight="900" style="letter-spacing: 0.2em;">NESTJS_CORE_API</text>
    
    <rect x="430" y="150" width="160" height="50" rx="8" fill="#05080a" stroke="#6366f1" stroke-opacity="0.3"/>
    <text x="510" y="175" text-anchor="middle" fill="#f8fafc" font-family="sans-serif" font-size="10" font-weight="700">Veroz Logistics Engine</text>
    <rect x="430" y="220" width="160" height="50" rx="8" fill="#05080a" stroke="#6366f1" stroke-opacity="0.3"/>
    <text x="510" y="245" text-anchor="middle" fill="#f8fafc" font-family="sans-serif" font-size="10" font-weight="700">Revenue Split Ledger</text>
    <rect x="430" y="290" width="160" height="50" rx="8" fill="#05080a" stroke="#6366f1" stroke-opacity="0.3"/>
    <text x="510" y="315" text-anchor="middle" fill="#f8fafc" font-family="sans-serif" font-size="10" font-weight="700">Order State Machine</text>
  </g>

  <g id="Storage_Layer">
    <path d="M610 175 H670" stroke="#6366f1" stroke-width="1.5" stroke-opacity="0.3"/>
    <rect x="670" y="150" width="80" height="50" rx="6" fill="#0f172a" stroke="#1e293b"/>
    <text x="710" y="180" text-anchor="middle" fill="#94a3b8" font-family="sans-serif" font-size="10">Redis</text>

    <path d="M610 315 H670" stroke="#6366f1" stroke-width="1.5" stroke-opacity="0.3"/>
    <rect x="670" y="290" width="80" height="50" rx="6" fill="#0f172a" stroke="#1e293b"/>
    <text x="710" y="320" text-anchor="middle" fill="#94a3b8" font-family="sans-serif" font-size="10">Postgres</text>
  </g>

  <rect x="300" y="440" width="200" height="30" rx="15" fill="#6366f1" fill-opacity="0.05" stroke="#6366f1" stroke-opacity="0.2"/>
  <text x="400" y="458" text-anchor="middle" fill="#6366f1" font-family="monospace" font-size="9" font-weight="700">LINUX_VPS // PM2_RUNTIME // UPTIME_STABLE</text>
</svg>