<svg width="800" height="500" viewBox="0 0 800 500" fill="none" xmlns="http://www.w3.org/2000/svg">
  <rect width="800" height="500" rx="24" fill="#05080a"/>
  <rect x="0.5" y="0.5" width="799" height="499" rx="23.5" stroke="#ffffff" stroke-opacity="0.05"/>

  <text x="40" y="40" fill="#94a3b8" font-family="monospace" font-size="10" font-weight="900" style="letter-spacing: 0.2em;">SYSTEM_MIGRATION: EXCEL_TO_DJANGO</text>

  <g id="RBAC_Access">
    <rect x="50" y="100" width="160" height="300" rx="16" fill="#ffffff" fill-opacity="0.02" stroke="#ffffff" stroke-opacity="0.1"/>
    <text x="130" y="90" text-anchor="middle" fill="#6366f1" font-family="monospace" font-size="10" font-weight="900">PERMISSIONS_RBAC</text>
    
    <rect x="70" y="140" width="120" height="40" rx="8" fill="#1e1b4b" stroke="#6366f1" stroke-opacity="0.5"/>
    <text x="130" y="165" text-anchor="middle" fill="#ffffff" font-family="sans-serif" font-size="10" font-weight="700">Admins</text>
    
    <rect x="70" y="200" width="120" height="40" rx="8" fill="#0f172a" stroke="#1e293b"/>
    <text x="130" y="225" text-anchor="middle" fill="#94a3b8" font-family="sans-serif" font-size="10">Coordinators</text>
    
    <rect x="70" y="260" width="120" height="40" rx="8" fill="#0f172a" stroke="#1e293b"/>
    <text x="130" y="285" text-anchor="middle" fill="#94a3b8" font-family="sans-serif" font-size="10">Staff / Volunteers</text>
  </g>

  <path d="M210 250 H280" stroke="#6366f1" stroke-width="2" stroke-dasharray="4 4"/>

  <g id="Django_MVC">
    <rect x="280" y="140" width="240" height="220" rx="16" fill="#092e20" fill-opacity="0.1" stroke="#092e20"/>
    <text x="400" y="130" text-anchor="middle" fill="#092e20" font-family="monospace" font-size="10" font-weight="900">DJANGO_MVC_FRAMEWORK</text>
    
    <rect x="300" y="170" width="200" height="40" rx="6" fill="#05080a" stroke="#092e20"/>
    <text x="400" y="195" text-anchor="middle" fill="#ffffff" font-family="sans-serif" font-size="10">Admin Interface / UI</text>
    
    <rect x="300" y="230" width="200" height="40" rx="6" fill="#05080a" stroke="#092e20"/>
    <text x="400" y="255" text-anchor="middle" fill="#ffffff" font-family="sans-serif" font-size="10">Server-Side Validation</text>
    
    <rect x="300" y="290" width="200" height="40" rx="6" fill="#05080a" stroke="#092e20"/>
    <text x="400" y="315" text-anchor="middle" fill="#ffffff" font-family="sans-serif" font-size="10">ORM Logic / QuerySet</text>
  </g>

  <g id="Database">
    <path d="M520 250 H590" stroke="#6366f1" stroke-width="2" stroke-dasharray="4 4"/>
    
    <path d="M590 190 C590 173.431 634.772 160 690 160 C745.228 160 790 173.431 790 190 V310 C790 326.569 745.228 340 690 340 C634.772 340 590 326.569 590 310 V190 Z" fill="#05080a" stroke="#6366f1"/>
    <path d="M590 190 C590 206.569 634.772 220 690 220 C745.228 220 790 206.569 790 190" stroke="#6366f1" stroke-opacity="0.5"/>
    
    <text x="690" y="250" text-anchor="middle" fill="#ffffff" font-family="sans-serif" font-size="12" font-weight="700">MySQL DB</text>
    <text x="690" y="270" text-anchor="middle" fill="#94a3b8" font-family="monospace" font-size="8">RELATIONAL_SCHEMA</text>
    
    <text x="690" y="295" text-anchor="middle" fill="#6366f1" font-family="monospace" font-size="7">MEMBER_ID | PROJECT_FK | ATTENDANCE</text>
  </g>

  <rect x="250" y="440" width="300" height="30" rx="15" fill="#ffffff" fill-opacity="0.03" stroke="#ffffff" stroke-opacity="0.1"/>
  <text x="400" y="458" text-anchor="middle" fill="#94a3b8" font-family="monospace" font-size="9" font-weight="700">PYTHONANYWHERE // GUNICORN // PRODUCTION_LIVE</text>
</svg>