<svg width="1000" height="500" viewBox="0 0 1000 500" fill="none" xmlns="http://www.w3.org/2000/svg">
  <rect width="1000" height="500" rx="16" fill="#05080a"/>
  <rect x="0.5" y="0.5" width="999" height="499" rx="15.5" stroke="#ffffff" stroke-opacity="0.05"/>

  <path d="M0 100 H1000 M0 200 H1000 M0 300 H1000 M0 400 H1000" stroke="#ffffff" stroke-opacity="0.02" stroke-dasharray="2 2"/>
  <path d="M100 0 V500 M200 0 V500 M300 0 V500 M400 0 V500 M500 0 V500 M600 0 V500 M700 0 V500 M800 0 V500 M900 0 V500" stroke="#ffffff" stroke-opacity="0.02" stroke-dasharray="2 2"/>

  <g id="Input">
    <rect x="40" y="210" width="100" height="80" rx="8" fill="#6366f1" fill-opacity="0.05" stroke="#6366f1"/>
    <text x="90" y="200" text-anchor="middle" fill="#6366f1" font-family="monospace" font-size="10" font-weight="900" style="letter-spacing: 0.1em;">SEQ_INPUT</text>
    <text x="90" y="245" text-anchor="middle" fill="#ffffff" font-family="monospace" font-size="12" font-weight="700">1 x 8930</text>
    <text x="90" y="265" text-anchor="middle" fill="#94a3b8" font-family="monospace" font-size="8">K-MER_VECTOR</text>
  </g>

  <g id="Conv1">
    <path d="M140 250 H180" stroke="#6366f1" stroke-opacity="0.5" stroke-dasharray="4 2"/>
    <rect x="180" y="180" width="120" height="140" rx="12" fill="#ffffff" fill-opacity="0.02" stroke="#ffffff" stroke-opacity="0.1"/>
    <text x="240" y="170" text-anchor="middle" fill="#94a3b8" font-family="monospace" font-size="9" font-weight="700">CONV_BLOCK_01</text>
    <rect x="195" y="195" width="90" height="30" rx="4" fill="#0f172a" stroke="#6366f1" stroke-opacity="0.3"/>
    <text x="240" y="213" text-anchor="middle" fill="#f8fafc" font-family="sans-serif" font-size="9">Conv1d_1 (32ch)</text>
    <text x="240" y="240" text-anchor="middle" fill="#6366f1" font-family="monospace" font-size="8">K7 | P3 | S1</text>
    <rect x="195" y="260" width="90" height="30" rx="4" fill="#6366f1" fill-opacity="0.1" stroke="#6366f1" stroke-opacity="0.2"/>
    <text x="240" y="278" text-anchor="middle" fill="#94a3b8" font-family="sans-serif" font-size="8">BatchNorm + Pool</text>
  </g>

  <g id="Dropout">
    <path d="M300 250 H330" stroke="#6366f1" stroke-opacity="0.3"/>
    <circle cx="345" cy="250" r="15" fill="#ef4444" fill-opacity="0.1" stroke="#ef4444" stroke-opacity="0.5"/>
    <text x="345" y="253" text-anchor="middle" fill="#ef4444" font-family="monospace" font-size="10" font-weight="900">D</text>
    <text x="345" y="280" text-anchor="middle" fill="#ef4444" font-family="monospace" font-size="8" font-opacity="0.6">SPATIAL</text>
  </g>

  <g id="Conv2_3">
    <path d="M360 250 H400" stroke="#6366f1" stroke-opacity="0.3"/>
    <rect x="400" y="180" width="140" height="140" rx="12" fill="#ffffff" fill-opacity="0.02" stroke="#ffffff" stroke-opacity="0.1"/>
    <text x="470" y="170" text-anchor="middle" fill="#94a3b8" font-family="monospace" font-size="9" font-weight="700">HIERARCHICAL_FEATURE</text>
    <rect x="415" y="200" width="110" height="40" rx="6" fill="#0f172a" stroke="#6366f1" stroke-opacity="0.5"/>
    <text x="470" y="220" text-anchor="middle" fill="#f8fafc" font-family="sans-serif" font-size="9">Conv1d_2 (64ch)</text>
    <text x="470" y="232" text-anchor="middle" fill="#6366f1" font-family="monospace" font-size="7">K5 | P2 | S1</text>
    <rect x="415" y="255" width="110" height="40" rx="6" fill="#0f172a" stroke="#6366f1" stroke-opacity="0.5"/>
    <text x="470" y="275" text-anchor="middle" fill="#f8fafc" font-family="sans-serif" font-size="9">Conv1d_3 (32ch)</text>
    <text x="470" y="287" text-anchor="middle" fill="#6366f1" font-family="monospace" font-size="7">K5 | P2 | S1</text>
  </g>

  <g id="Attention">
    <path d="M540 250 H580" stroke="#6366f1" stroke-width="2"/>
    <rect x="580" y="150" width="160" height="200" rx="16" fill="#6366f1" fill-opacity="0.03" stroke="#6366f1"/>
    <text x="660" y="140" text-anchor="middle" fill="#6366f1" font-family="monospace" font-size="10" font-weight="900" style="letter-spacing: 0.2em;">SELF_ATTENTION_HUB</text>
    
    <path d="M600 200 H720" stroke="#6366f1" stroke-opacity="0.2"/>
    <rect x="610" y="215" width="100" height="40" rx="6" fill="#05080a" stroke="#6366f1"/>
    <text x="660" y="235" text-anchor="middle" fill="#ffffff" font-family="monospace" font-size="10" font-weight="700">2_HEADS</text>
    <text x="660" y="247" text-anchor="middle" fill="#6366f1" font-family="monospace" font-size="7">d_model: 32</text>
    
    <rect x="610" y="270" width="100" height="30" rx="4" fill="#ffffff" fill-opacity="0.05" stroke="#ffffff" stroke-opacity="0.1"/>
    <text x="660" y="288" text-anchor="middle" fill="#94a3b8" font-family="sans-serif" font-size="8">LayerNorm (Residual)</text>
  </g>

  <g id="Head">
    <path d="M740 250 H780" stroke="#6366f1" stroke-opacity="0.5"/>
    <rect x="780" y="180" width="80" height="140" rx="12" fill="#ffffff" fill-opacity="0.02" stroke="#ffffff" stroke-opacity="0.1"/>
    <text x="820" y="170" text-anchor="middle" fill="#94a3b8" font-family="monospace" font-size="9" font-weight="700">GLOBAL_POOL</text>
    <circle cx="820" cy="250" r="20" fill="#0f172a" stroke="#6366f1"/>
    <text x="820" y="254" text-anchor="middle" fill="#6366f1" font-family="monospace" font-size="10" font-weight="900">AVG</text>
  </g>

  <g id="Output">
    <path d="M860 250 H900" stroke="#10b981" stroke-width="2"/>
    <rect x="900" y="210" width="80" height="80" rx="8" fill="#10b981" fill-opacity="0.1" stroke="#10b981"/>
    <text x="940" y="200" text-anchor="middle" fill="#10b981" font-family="monospace" font-size="10" font-weight="900" style="letter-spacing: 0.1em;">LOGITS</text>
    <text x="940" y="245" text-anchor="middle" fill="#ffffff" font-family="monospace" font-size="14" font-weight="700">14</text>
    <text x="940" y="265" text-anchor="middle" fill="#94a3b8" font-family="monospace" font-size="8">VFC_CLASSES</text>
  </g>

  <text x="500" y="470" text-anchor="middle" fill="#6366f1" fill-opacity="0.4" font-family="monospace" font-size="9" font-weight="700">
    OPTIMIZER: ADAMP (LR 5E-4) // LOSS: CROSSENTROPY // SCHEDULER: ONE_CYCLE
  </text>
</svg>